# This file uses centimeters as units for non-parametric coordinates.

mtllib bing.mtl
g default
v 0.090197 2.828648 -0.817240
v -0.301681 3.323454 0.000000
v -0.857853 2.204570 -0.281206
v -0.406728 3.138619 -0.299069
v -0.451901 3.138619 0.299069
v -0.045738 2.820946 0.807628
v -0.367132 -1.477403 -0.055100
v -0.861481 2.206563 0.311192
v -0.664877 0.553763 -0.111481
v -0.579181 0.586693 0.588155
v -0.003470 0.818951 -0.719854
v 0.122837 3.323454 0.000000
v 0.761591 1.290693 -0.303186
v 0.668629 3.011557 -0.504659
v 0.463107 3.018982 0.492646
v -0.092090 0.821314 0.808066
v -0.017676 -3.322462 0.000000
v 0.447995 1.244158 0.379161
v 0.377728 -1.120580 -0.321109
v 0.119478 -1.120580 0.296883
vt 0.493088 -0.000001
vt 0.503969 0.391861
vt 0.550153 0.184654
vt 0.600339 0.402647
vt 0.636030 0.622835
vt 0.411584 0.275470
vt 0.446404 0.769795
vt 0.348282 0.630271
vt 0.444619 0.341260
vt 0.333289 0.431527
vt 0.538491 0.534011
vt 0.660024 0.602670
vt 0.641773 0.911210
vt 0.499051 1.000057
vt 0.601956 0.804812
vt 0.526002 0.812691
vt 0.468620 0.886921
vt 0.325467 0.699148
vt 0.484858 0.727967
vt 0.321402 0.850127
vn -0.298757 -0.084971 -0.950539
vn -0.301493 -0.078999 -0.950190
vn -0.358633 -0.112904 -0.926626
vn -0.532465 -0.229559 -0.814729
vn -0.590014 -0.272233 -0.760114
vn 0.917199 -0.108811 0.383284
vn 0.913979 -0.127418 0.385236
vn 0.915380 -0.125516 0.382524
vn 0.902563 -0.146692 0.404799
vn 0.904235 -0.145735 0.401398
vn -0.545860 -0.078474 0.834193
vn -0.435763 -0.240385 0.867367
vn -0.500004 -0.158060 0.851477
vn -0.304104 -0.279805 0.910621
vn -0.283595 -0.272892 0.919295
vn -0.981929 -0.140417 0.126881
vn -0.981302 -0.144626 0.127003
vn -0.983090 -0.141721 0.115971
vn -0.991583 -0.125792 0.030662
vn -0.993153 -0.116683 -0.005689
vn 0.003992 0.859849 -0.510534
vn 0.001462 0.854051 -0.520187
vn 0.002680 0.856856 -0.515549
vn 0.000001 0.850650 -0.525732
vn 0.000000 0.850651 -0.525731
vn -0.001428 0.847617 0.530607
vn -0.000892 0.848760 0.528778
vn -0.000570 0.849443 0.527680
vn 0.000000 0.850651 0.525731
vn 0.000000 0.850651 0.525731
vn 0.512295 -0.075196 -0.855511
vn 0.510831 -0.071789 -0.856679
vn 0.508146 -0.069776 -0.858440
vn 0.498036 -0.071440 -0.864209
vn 0.492317 -0.074932 -0.867185
vn -0.635378 -0.152112 -0.757071
vn -0.531423 -0.009301 -0.847056
vn -0.574299 -0.096774 -0.812906
vn -0.522016 0.062362 -0.850653
vn -0.604862 0.277863 -0.746280
vn -0.915516 0.402221 -0.006959
vn -0.886299 0.450882 -0.105728
vn -0.908741 0.416648 -0.024365
vn -0.883263 0.460813 -0.086591
vn -0.899133 0.435158 0.046877
vn -0.440534 0.076167 0.894499
vn -0.480809 0.047006 0.875565
vn -0.538690 0.055234 0.840692
vn -0.569898 0.097392 0.815924
vn -0.648712 0.294197 0.701869
vn 0.901706 0.098011 0.421093
vn 0.963308 0.118804 0.240674
vn 0.941980 0.048504 0.332147
vn 0.973217 0.113862 0.199711
vn 0.568530 0.815127 0.111093
vn 0.672897 -0.118885 0.730120
vn 0.637553 -0.054902 0.768448
vn 0.659897 -0.085715 0.746451
vn 0.564881 -0.046984 0.823834
vn 0.541727 -0.058229 0.838535
s 1
g pPlatonic1
usemtl lambert2SG
f 17/1/1 7/3/2 19/2/3
f 7/3/2 9/4/4 19/2/3
f 19/2/3 9/4/4 11/5/5
s 2
f 17/1/6 19/2/7 20/6/8
f 13/7/9 18/8/10 19/2/7
f 18/8/10 20/6/8 19/2/7
s 3
f 17/1/11 20/6/12 7/3/13
f 7/3/13 20/6/12 10/9/14
f 16/10/15 10/9/14 20/6/12
s 4
f 7/3/16 10/9/17 9/4/18
f 10/9/17 8/11/19 9/4/18
f 3/12/20 9/4/18 8/11/19
s 5
f 1/13/21 4/15/22 14/14/23
f 4/15/22 2/16/24 14/14/23
f 12/17/25 14/14/23 2/16/24
s 6
f 6/18/26 15/20/27 5/19/28
f 5/19/28 15/20/27 2/16/29
f 2/16/29 15/20/27 12/17/30
s 7
f 19/2/31 11/5/32 13/7/33
f 11/5/32 1/13/34 13/7/33
f 14/14/35 13/7/33 1/13/34
s 8
f 9/4/36 3/12/37 11/5/38
f 11/5/38 3/12/37 1/13/39
f 1/13/39 3/12/37 4/15/40
s 9
f 8/11/41 5/19/42 3/12/43
f 5/19/42 2/16/44 3/12/43
f 2/16/44 4/15/45 3/12/43
s 10
f 10/9/46 16/10/47 8/11/48
f 16/10/47 6/18/49 8/11/48
f 5/19/50 8/11/48 6/18/49
s 11
f 13/7/51 14/14/52 18/8/53
f 18/8/53 14/14/52 15/20/54
f 12/17/55 15/20/54 14/14/52
s 12
f 20/6/56 18/8/57 16/10/58
f 16/10/58 18/8/57 6/18/59
f 6/18/59 18/8/57 15/20/60
